<svg width="100" height="100" viewBox="0 0 100 100" xmlns="http://www.w3.org/2000/svg">
    <rect width="100" height="100" fill="#000000"/>
    <defs>
        <linearGradient id="grad1" x1="0%" y1="0%" x2="100%" y2="100%">
            <stop offset="0%" style="stop-color:#00ff88;stop-opacity:1" />
            <stop offset="100%" style="stop-color:#00cc6a;stop-opacity:1" />
        </linearGradient>
    </defs>
    <path d="M 65 25 C 65 15, 55 10, 40 10 C 25 10, 15 15, 15 25 C 15 35, 25 40, 40 40 C 55 40, 60 45, 60 50 C 60 55, 55 60, 40 60 C 25 60, 20 65, 20 75 C 20 85, 30 90, 45 90 C 60 90, 70 85, 70 75 C 70 65, 60 60, 45 60 C 30 60, 25 55, 25 50 C 25 45, 30 40, 45 40 C 60 40, 65 35, 65 25" fill="url(#grad1)" />
</svg>